<svg width="123" height="48" viewBox="0 0 123 48" fill="none" xmlns="http://www.w3.org/2000/svg">
<mask id="mask0_1_25" style="mask-type:alpha" maskUnits="userSpaceOnUse" x="0" y="0" width="26" height="48">
<rect width="25.8462" height="48" fill="#D9D9D9"/>
</mask>
<g mask="url(#mask0_1_25)">
<path d="M0.994078 5.11249C5.73973 5.11249 10.291 7.05006 13.6467 10.4989C17.0024 13.9478 18.8876 18.6255 18.8876 23.503C18.8876 28.3805 17.0024 33.0582 13.6467 36.5071C10.291 39.956 5.73973 41.8936 0.99408 41.8936L0.994078 23.503L0.994078 5.11249Z" fill="black"/>
</g>
<path d="M39.6172 13.7949C41.3438 13.7949 42.9095 14.1842 44.3145 14.9629C45.7279 15.7415 46.8366 16.8206 47.6406 18.2002C48.4447 19.5798 48.8467 21.1201 48.8467 22.8213C48.8467 24.5563 48.4447 26.1263 47.6406 27.5312C46.8366 28.9277 45.7279 30.0238 44.3145 30.8193C42.9095 31.6064 41.3438 32 39.6172 32H33.3838V13.7949H39.6172ZM39.8838 28.3057C41.3226 28.3057 42.5117 27.7852 43.4512 26.7441C44.3991 25.7031 44.873 24.3955 44.873 22.8213C44.873 21.2725 44.4033 19.9987 43.4639 19C42.5329 17.9928 41.3395 17.4893 39.8838 17.4893H37.2305V28.3057H39.8838ZM55.8164 32.2539C53.4974 32.2539 51.5889 31.7207 50.0908 30.6543L51.1826 28.1025C52.3844 28.9997 53.8232 29.4482 55.499 29.4482C56.0661 29.4482 56.5189 29.3509 56.8574 29.1562C57.2044 28.9616 57.3779 28.7119 57.3779 28.4072C57.3779 28.1449 57.2467 27.929 56.9844 27.7598C56.7305 27.582 56.4004 27.4424 55.9941 27.3408C55.5879 27.2393 55.1393 27.1377 54.6484 27.0361C54.1576 26.9261 53.6667 26.7865 53.1758 26.6172C52.6849 26.4395 52.2363 26.2236 51.8301 25.9697C51.4238 25.7074 51.0895 25.3434 50.8271 24.8779C50.5732 24.404 50.4421 23.8496 50.4336 23.2148C50.4167 22.013 50.8906 21.0059 51.8555 20.1934C52.8203 19.3809 54.0518 18.9746 55.5498 18.9746C57.5726 18.9746 59.1934 19.4613 60.4121 20.4346L59.3711 23.0879C58.8633 22.707 58.2412 22.3896 57.5049 22.1357C56.777 21.8818 56.0745 21.7549 55.3975 21.7549C54.932 21.7549 54.5553 21.8522 54.2676 22.0469C53.9798 22.2415 53.8359 22.4827 53.8359 22.7705C53.8359 22.9906 53.9375 23.1852 54.1406 23.3545C54.3438 23.5153 54.6061 23.6465 54.9277 23.748C55.2578 23.8496 55.6302 23.9639 56.0449 24.0908C56.4681 24.2093 56.8955 24.3278 57.3271 24.4463C57.7588 24.5648 58.182 24.7298 58.5967 24.9414C59.0199 25.153 59.3965 25.3942 59.7266 25.665C60.0566 25.9274 60.3232 26.2744 60.5264 26.7061C60.738 27.1377 60.848 27.6286 60.8564 28.1787C60.8564 29.3636 60.3825 30.3411 59.4346 31.1113C58.4951 31.873 57.2891 32.2539 55.8164 32.2539ZM70.6572 28.5977L70.8477 31.8477C70.3568 32.0846 69.7305 32.2031 68.9688 32.2031C67.4453 32.2031 66.2139 31.7461 65.2744 30.832C64.3434 29.9095 63.8779 28.6357 63.8779 27.0107V22.7197H61.5039V19.2285H63.8779V15.877H67.5469V19.2285H70.6826V22.7197H67.5469V26.8203C67.5469 27.4043 67.7373 27.8783 68.1182 28.2422C68.499 28.5977 68.9645 28.7754 69.5146 28.7754C69.9378 28.7754 70.3187 28.7161 70.6572 28.5977ZM81.3086 19.2285H84.9775V32H81.3086V30.4893C80.9447 31.0309 80.4495 31.4626 79.8232 31.7842C79.2054 32.0973 78.541 32.2539 77.8301 32.2539C76.2135 32.2539 74.9398 31.7376 74.0088 30.7051C73.0863 29.6725 72.625 28.2507 72.625 26.4395V19.2285H76.2939V25.8428C76.2939 26.7145 76.514 27.3916 76.9541 27.874C77.4027 28.3564 78.0078 28.5977 78.7695 28.5977C79.2689 28.5977 79.7471 28.4707 80.2041 28.2168C80.6696 27.9544 81.0378 27.6032 81.3086 27.1631V19.2285ZM96.7334 13.7949H100.402V32H96.7334V30.4893C96.4202 31.014 95.9124 31.4414 95.21 31.7715C94.516 32.0931 93.7669 32.2539 92.9629 32.2539C91.8711 32.2539 90.8682 31.9577 89.9541 31.3652C89.04 30.7728 88.3206 29.9688 87.7959 28.9531C87.2712 27.929 87.0088 26.8118 87.0088 25.6016C87.0088 23.7565 87.5843 22.1908 88.7354 20.9043C89.8949 19.6178 91.304 18.9746 92.9629 18.9746C93.7585 18.9746 94.5075 19.1396 95.21 19.4697C95.9124 19.7998 96.4202 20.223 96.7334 20.7393V13.7949ZM93.7754 28.7754C94.3932 28.7754 94.9688 28.6273 95.502 28.3311C96.0436 28.0348 96.4541 27.654 96.7334 27.1885V24.0654C96.4541 23.583 96.0436 23.1895 95.502 22.8848C94.9688 22.5801 94.3932 22.4277 93.7754 22.4277C92.8783 22.4277 92.125 22.7324 91.5156 23.3418C90.9062 23.9427 90.6016 24.696 90.6016 25.6016C90.6016 26.5072 90.9062 27.2646 91.5156 27.874C92.125 28.4749 92.8783 28.7754 93.7754 28.7754ZM103.221 13.7061C103.661 13.266 104.186 13.0459 104.795 13.0459C105.404 13.0459 105.929 13.266 106.369 13.7061C106.809 14.1377 107.029 14.654 107.029 15.2549C107.029 15.8643 106.809 16.389 106.369 16.8291C105.929 17.2692 105.404 17.4893 104.795 17.4893C104.186 17.4893 103.661 17.2692 103.221 16.8291C102.781 16.389 102.561 15.8643 102.561 15.2549C102.561 14.654 102.781 14.1377 103.221 13.7061ZM102.967 19.2285H106.636V32H102.967V19.2285ZM115.332 18.9746C116.255 18.9746 117.122 19.1439 117.935 19.4824C118.756 19.821 119.458 20.2865 120.042 20.8789C120.634 21.4629 121.1 22.1696 121.438 22.999C121.785 23.82 121.959 24.696 121.959 25.627C121.959 26.8711 121.667 28.001 121.083 29.0166C120.507 30.0322 119.712 30.8278 118.696 31.4033C117.689 31.9704 116.568 32.2539 115.332 32.2539C113.445 32.2539 111.866 31.6234 110.597 30.3623C109.327 29.1012 108.692 27.5228 108.692 25.627C108.692 23.7311 109.327 22.1484 110.597 20.8789C111.866 19.6094 113.445 18.9746 115.332 18.9746ZM115.332 22.4785C114.46 22.4785 113.732 22.779 113.148 23.3799C112.573 23.9723 112.285 24.7214 112.285 25.627C112.285 26.5072 112.573 27.2477 113.148 27.8486C113.732 28.4495 114.46 28.75 115.332 28.75C116.187 28.75 116.906 28.4495 117.49 27.8486C118.074 27.2477 118.366 26.5072 118.366 25.627C118.366 24.7214 118.074 23.9723 117.49 23.3799C116.915 22.779 116.195 22.4785 115.332 22.4785Z" fill="black"/>
</svg>
